<svg width="56" height="56" fill="none" xmlns="http://www.w3.org/2000/svg">
    <path d="M49.75 49H46V10h1.5a.75.75 0 0 0 .75-.75v-3a.75.75 0 0 0-.75-.75h-39a.75.75 0 0 0-.75.75v3c0 .414.336.75.75.75H10v39H6.25a.75.75 0 0 0 0 1.5h43.5a.75.75 0 0 0 0-1.5ZM26.5 42.25a.75.75 0 0 1-.75.75h-12a.75.75 0 0 1-.75-.75v-6a.75.75 0 0 1 .75-.75h12a.75.75 0 0 1 .75.75v6Zm0-12a.75.75 0 0 1-.75.75h-12a.75.75 0 0 1-.75-.75v-6a.75.75 0 0 1 .75-.75h12a.75.75 0 0 1 .75.75v6Zm0-10.5a.75.75 0 0 1-.75.75h-12a.75.75 0 0 1-.75-.75v-6a.75.75 0 0 1 .75-.75h12a.75.75 0 0 1 .75.75v6ZM41.5 49H40V37h-3v12h-1.5V37h-3v12H31V36.25a.75.75 0 0 1 .75-.75h9a.75.75 0 0 1 .75.75V49ZM43 30.25a.75.75 0 0 1-.75.75h-12a.75.75 0 0 1-.75-.75v-6a.75.75 0 0 1 .75-.75h12a.75.75 0 0 1 .75.75v6Zm0-10.5a.75.75 0 0 1-.75.75h-12a.75.75 0 0 1-.75-.75v-6a.75.75 0 0 1 .75-.75h12a.75.75 0 0 1 .75.75v6Z" fill="#009AFA"/>
    <path d="M25 14.5h-4.5V19H25v-4.5ZM25 37h-4.5v4.5H25V37ZM19 37h-4.5v4.5H19V37ZM41.5 14.5H37V19h4.5v-4.5ZM35.5 14.5H31V19h4.5v-4.5ZM19 14.5h-4.5V19H19v-4.5ZM25 25h-4.5v4.5H25V25ZM41.5 25H37v4.5h4.5V25ZM35.5 25H31v4.5h4.5V25ZM19 25h-4.5v4.5H19V25Z" fill="#9BD9FF"/>
    <path d="M38 1.44c6.175 0 11.182 5.006 11.182 11.182 0 6.175-5.007 11.182-11.182 11.182-6.175 0-11.182-5.007-11.182-11.182C26.818 6.446 31.824 1.44 38 1.44Z" fill="#fff" stroke="#009AFA" stroke-width="1.636"/>
    <g clip-path="url(#a)">
        <path d="M37.34 6.917a4.798 4.798 0 1 1 1.663 7.868l-.199-.081-.014-.004h-.45v1.166c0 .477-.364.87-.829.917l-.094.005h-1.165v1.165c0 .478-.363.87-.829.918l-.094.005h-2.94c-.384 0-.7-.291-.74-.664l-.005-.082v-1.927c0-.257.09-.505.25-.702l.074-.081 4.06-4.06.007-.027a.184.184 0 0 0-.003-.06 4.794 4.794 0 0 1 1.308-4.356Zm3.132 2.087a1.107 1.107 0 1 0 1.565 1.566 1.107 1.107 0 0 0-1.565-1.566Z" fill="#009AFA"/>
    </g>
    <defs>
        <clipPath id="a">
            <path fill="#fff" transform="translate(29.75 3.693)" d="M0 0h17.714v17.714H0z"/>
        </clipPath>
    </defs>
</svg>
