<svg width="56" height="56" viewBox="0 0 56 56" fill="none" xmlns="http://www.w3.org/2000/svg">
<path fill-rule="evenodd" clip-rule="evenodd" d="M21.4918 47.0113L21.6065 47.1219L21.6155 47.1307C23.7179 49.1453 25.7564 50.5262 28.062 50.4996C30.3571 50.4732 32.3873 49.0563 34.4883 47.0105C37.368 44.2202 41.0941 40.4564 43.786 35.9913C46.4882 31.5095 48.2319 26.1816 46.9198 20.3338C42.4868 0.570494 13.5364 0.547339 9.08012 20.3128C7.80527 25.9948 9.41588 31.1925 11.9843 35.5975C14.5431 39.9862 18.1235 43.7123 20.9949 46.5265C21.1622 46.6904 21.3273 46.8514 21.4898 47.0095L21.4918 47.0113ZM28 15.967C24.2423 15.967 21.196 19.0133 21.196 22.771C21.196 26.5287 24.2423 29.575 28 29.575C31.7577 29.575 34.8041 26.5287 34.8041 22.771C34.8041 19.0133 31.7577 15.967 28 15.967Z" fill="black"/>
</svg>
