<svg width="56" height="56" fill="none" xmlns="http://www.w3.org/2000/svg">
    <path d="M45.858 33.688 33.499 46.044a3.131 3.131 0 0 1-4.412 0L11.404 28.36a8.523 8.523 0 0 1-2.171-5.327l.12-10.365a3.213 3.213 0 0 1 3.16-3.154l10.334-.098a8.56 8.56 0 0 1 5.328 2.176l17.683 17.684a3.131 3.131 0 0 1 0 4.412ZM17.655 15.703a2.23 2.23 0 1 0-4.46 0 2.23 2.23 0 0 0 4.46 0Zm18.567 20.69a1.558 1.558 0 0 0 0-2.207l-1.129-1.129c.466-.714.8-1.505.985-2.337a4.406 4.406 0 0 0-1.117-4.232 4.477 4.477 0 0 0-2.864-1.295 6.027 6.027 0 0 0-2.112.239h-.005a6.879 6.879 0 0 0-1.662.78h-.008c-.446.29-.86.628-1.234 1.005-.225.227-.469.434-.729.62a3.632 3.632 0 0 1-.926.478h-.006c-.306.1-.63.137-.952.107h-.005a1.492 1.492 0 0 1-.884-.383 1.518 1.518 0 0 1-.299-1.503 4.336 4.336 0 0 1 1.155-2c.202-.173.418-.328.647-.464l.085-.053a5.02 5.02 0 0 1 .906-.437c.293-.11.603-.167.915-.169a1.56 1.56 0 0 0 0-3.12 5.808 5.808 0 0 0-2.021.372c-.52.192-1.02.437-1.49.732l-.028.017-1.12-1.127a1.562 1.562 0 0 0-2.208 2.21l1.092 1.09a7.076 7.076 0 0 0-.977 2.262 4.63 4.63 0 0 0 1.138 4.395 4.568 4.568 0 0 0 2.768 1.284 5.414 5.414 0 0 0 2.266-.25 6.679 6.679 0 0 0 1.758-.899c.399-.286.774-.606 1.12-.954.22-.22.46-.417.721-.586.28-.18.584-.323.901-.425a2.88 2.88 0 0 1 .98-.107c.327.022.634.161.867.391.141.138.465.465.273 1.374a4.388 4.388 0 0 1-1.163 2.053c-.247.224-.51.43-.788.617-.272.175-.56.324-.862.442-.286.11-.595.15-.9.118a1.563 1.563 0 0 0-1.294 2.579 1.56 1.56 0 0 0 1.068.535 5.6 5.6 0 0 0 .428.015 4.852 4.852 0 0 0 1.929-.378c.502-.201.98-.456 1.427-.76l.029-.02 1.117 1.12a1.563 1.563 0 0 0 2.205 0h.003Z" fill="#000"/>
</svg>
